<?xml version="1.0" encoding="UTF-8" standalone="no"?> <svg width="124.883mm" height="94.5444mm"  viewBox="0 0 354.979 268"  xmlns="http://www.w3.org/2000/svg" xmlns:xlink="http://www.w3.org/1999/xlink"  version="1.2" baseProfile="tiny"> <title>Generated with ETE http://etetoolkit.org</title> <desc>Generated with ETE http://etetoolkit.org</desc> <defs> </defs> <g fill="none" stroke="black" stroke-width="1" fill-rule="evenodd" stroke-linecap="square" stroke-linejoin="bevel" >      <g fill="none" stroke="none" transform="matrix(1,0,0,1,0,0)" font-family="Sans Serif" font-size="9pt" font-weight="400" font-style="normal"  > <rect x="0" y="0" width="354.979" height="268"/> </g>      <g fill="none" stroke="none" transform="matrix(1,0,0,1,1,1)" font-family="Sans Serif" font-size="9pt" font-weight="400" font-style="normal"  > <rect x="0" y="0" width="352.979" height="216"/> </g>                                                              <g fill="none" stroke="#000000" stroke-opacity="1" stroke-width="1" stroke-linecap="butt" stroke-linejoin="bevel" transform="matrix(1,0,0,1,1,1)" font-family="Sans Serif" font-size="9pt" font-weight="400" font-style="normal"  > <polyline fill="none" vector-effect="non-scaling-stroke" points="0,13.5 0,163.688 " /> </g>                                    <g fill="none" stroke="#000000" stroke-opacity="1" stroke-width="1" stroke-linecap="butt" stroke-linejoin="bevel" transform="matrix(1,0,0,1,1,1)" font-family="Sans Serif" font-size="9pt" font-weight="400" font-style="normal"  > <polyline fill="none" vector-effect="non-scaling-stroke" points="0,13.5 54.2762,13.5 " /> </g>          <g fill="none" stroke="#000000" stroke-opacity="1" stroke-width="1" stroke-linecap="square" stroke-linejoin="bevel" transform="matrix(1,0,0,1,55.2762,7)" font-family="Arial" font-size="10pt" font-weight="400" font-style="normal"  > <text fill="#000000" fill-opacity="1" stroke="none" xml:space="preserve" x="0" y="12" font-family="Arial" font-size="10pt" font-weight="400" font-style="normal"   >sample_22</text> </g>                    <g fill="none" stroke="#000000" stroke-opacity="1" stroke-width="1" stroke-linecap="butt" stroke-linejoin="bevel" transform="matrix(1,0,0,1,1,28)" font-family="Sans Serif" font-size="9pt" font-weight="400" font-style="normal"  > <polyline fill="none" vector-effect="non-scaling-stroke" points="0,13.5 37.9531,13.5 " /> </g>          <g fill="none" stroke="#000000" stroke-opacity="1" stroke-width="1" stroke-linecap="square" stroke-linejoin="bevel" transform="matrix(1,0,0,1,38.9531,34)" font-family="Arial" font-size="10pt" font-weight="400" font-style="normal"  > <text fill="#000000" fill-opacity="1" stroke="none" xml:space="preserve" x="0" y="12" font-family="Arial" font-size="10pt" font-weight="400" font-style="normal"   >sample_24</text> </g>              <g fill="none" stroke="#000000" stroke-opacity="1" stroke-width="1" stroke-linecap="butt" stroke-linejoin="bevel" transform="matrix(1,0,0,1,1,55)" font-family="Sans Serif" font-size="9pt" font-weight="400" font-style="normal"  > <polyline fill="none" vector-effect="non-scaling-stroke" points="17.4363,70.875 17.4363,148.5 " /> </g>            <g fill="none" stroke="#000000" stroke-opacity="1" stroke-width="1" stroke-linecap="butt" stroke-linejoin="bevel" transform="matrix(1,0,0,1,1,55)" font-family="Sans Serif" font-size="9pt" font-weight="400" font-style="normal"  > <polyline fill="none" vector-effect="non-scaling-stroke" points="0,109.688 17.4363,109.688 " /> </g>                  <g fill="none" stroke="#000000" stroke-opacity="1" stroke-width="1" stroke-linecap="butt" stroke-linejoin="bevel" transform="matrix(1,0,0,1,18.4363,55)" font-family="Sans Serif" font-size="9pt" font-weight="400" font-style="normal"  > <polyline fill="none" vector-effect="non-scaling-stroke" points="41.7321,33.75 41.7321,108 " /> </g>            <g fill="none" stroke="#000000" stroke-opacity="1" stroke-width="1" stroke-linecap="butt" stroke-linejoin="bevel" transform="matrix(1,0,0,1,18.4363,55)" font-family="Sans Serif" font-size="9pt" font-weight="400" font-style="normal"  > <polyline fill="none" vector-effect="non-scaling-stroke" points="0,70.875 41.7321,70.875 " /> </g>                  <g fill="none" stroke="#000000" stroke-opacity="1" stroke-width="1" stroke-linecap="butt" stroke-linejoin="bevel" transform="matrix(1,0,0,1,60.1684,55)" font-family="Sans Serif" font-size="9pt" font-weight="400" font-style="normal"  > <polyline fill="none" vector-effect="non-scaling-stroke" points="2.11121,13.5 2.11121,54 " /> </g>            <g fill="none" stroke="#000000" stroke-opacity="1" stroke-width="1" stroke-linecap="butt" stroke-linejoin="bevel" transform="matrix(1,0,0,1,60.1684,55)" font-family="Sans Serif" font-size="9pt" font-weight="400" font-style="normal"  > <polyline fill="none" vector-effect="non-scaling-stroke" points="0,33.75 2.11121,33.75 " /> </g>                        <g fill="none" stroke="#000000" stroke-opacity="1" stroke-width="1" stroke-linecap="butt" stroke-linejoin="bevel" transform="matrix(1,0,0,1,62.2796,55)" font-family="Sans Serif" font-size="9pt" font-weight="400" font-style="normal"  > <polyline fill="none" vector-effect="non-scaling-stroke" points="0,13.5 0.515104,13.5 " /> </g>          <g fill="none" stroke="#000000" stroke-opacity="1" stroke-width="1" stroke-linecap="square" stroke-linejoin="bevel" transform="matrix(1,0,0,1,62.7947,61)" font-family="Arial" font-size="10pt" font-weight="400" font-style="normal"  > <text fill="#000000" fill-opacity="1" stroke="none" xml:space="preserve" x="0" y="12" font-family="Arial" font-size="10pt" font-weight="400" font-style="normal"   >sample_25</text> </g>              <g fill="none" stroke="#000000" stroke-opacity="1" stroke-width="1" stroke-linecap="butt" stroke-linejoin="bevel" transform="matrix(1,0,0,1,62.2796,82)" font-family="Sans Serif" font-size="9pt" font-weight="400" font-style="normal"  > <polyline fill="none" vector-effect="non-scaling-stroke" points="0.550482,13.5 0.550482,40.5 " /> </g>            <g fill="none" stroke="#000000" stroke-opacity="1" stroke-width="1" stroke-linecap="butt" stroke-linejoin="bevel" transform="matrix(1,0,0,1,62.2796,82)" font-family="Sans Serif" font-size="9pt" font-weight="400" font-style="normal"  > <polyline fill="none" vector-effect="non-scaling-stroke" points="0,27 0.550482,27 " /> </g>                  <g fill="none" stroke="#808080" stroke-opacity="1" stroke-dasharray="1,2" stroke-dashoffset="0" stroke-width="1" stroke-linecap="butt" stroke-linejoin="bevel" transform="matrix(1,0,0,1,62.8301,82)" font-family="Sans Serif" font-size="9pt" font-weight="400" font-style="normal"  > <polyline fill="none" vector-effect="non-scaling-stroke" points="0.000309792,13.5 0.000309792,13.5 " /> </g>      <g fill="none" stroke="#000000" stroke-opacity="1" stroke-width="1" stroke-linecap="butt" stroke-linejoin="bevel" transform="matrix(1,0,0,1,62.8301,82)" font-family="Sans Serif" font-size="9pt" font-weight="400" font-style="normal"  > <polyline fill="none" vector-effect="non-scaling-stroke" points="0,13.5 0.000309792,13.5 " /> </g>          <g fill="none" stroke="#000000" stroke-opacity="1" stroke-width="1" stroke-linecap="square" stroke-linejoin="bevel" transform="matrix(1,0,0,1,62.8304,88)" font-family="Arial" font-size="10pt" font-weight="400" font-style="normal"  > <text fill="#000000" fill-opacity="1" stroke="none" xml:space="preserve" x="0" y="12" font-family="Arial" font-size="10pt" font-weight="400" font-style="normal"   >sample_36</text> </g>                    <g fill="none" stroke="#000000" stroke-opacity="1" stroke-width="1" stroke-linecap="butt" stroke-linejoin="bevel" transform="matrix(1,0,0,1,62.8301,109)" font-family="Sans Serif" font-size="9pt" font-weight="400" font-style="normal"  > <polyline fill="none" vector-effect="non-scaling-stroke" points="0,13.5 0.311481,13.5 " /> </g>          <g fill="none" stroke="#000000" stroke-opacity="1" stroke-width="1" stroke-linecap="square" stroke-linejoin="bevel" transform="matrix(1,0,0,1,63.1415,115)" font-family="Arial" font-size="10pt" font-weight="400" font-style="normal"  > <text fill="#000000" fill-opacity="1" stroke="none" xml:space="preserve" x="0" y="12" font-family="Arial" font-size="10pt" font-weight="400" font-style="normal"   >sample_37</text> </g>              <g fill="none" stroke="#000000" stroke-opacity="1" stroke-width="1" stroke-linecap="butt" stroke-linejoin="bevel" transform="matrix(1,0,0,1,60.1684,136)" font-family="Sans Serif" font-size="9pt" font-weight="400" font-style="normal"  > <polyline fill="none" vector-effect="non-scaling-stroke" points="0.808893,13.5 0.808893,40.5 " /> </g>            <g fill="none" stroke="#000000" stroke-opacity="1" stroke-width="1" stroke-linecap="butt" stroke-linejoin="bevel" transform="matrix(1,0,0,1,60.1684,136)" font-family="Sans Serif" font-size="9pt" font-weight="400" font-style="normal"  > <polyline fill="none" vector-effect="non-scaling-stroke" points="0,27 0.808893,27 " /> </g>                        <g fill="none" stroke="#000000" stroke-opacity="1" stroke-width="1" stroke-linecap="butt" stroke-linejoin="bevel" transform="matrix(1,0,0,1,60.9773,136)" font-family="Sans Serif" font-size="9pt" font-weight="400" font-style="normal"  > <polyline fill="none" vector-effect="non-scaling-stroke" points="0,13.5 2.97072,13.5 " /> </g>          <g fill="none" stroke="#000000" stroke-opacity="1" stroke-width="1" stroke-linecap="square" stroke-linejoin="bevel" transform="matrix(1,0,0,1,63.948,142)" font-family="Arial" font-size="10pt" font-weight="400" font-style="normal"  > <text fill="#000000" fill-opacity="1" stroke="none" xml:space="preserve" x="0" y="12" font-family="Arial" font-size="10pt" font-weight="400" font-style="normal"   >sample_34</text> </g>                    <g fill="none" stroke="#000000" stroke-opacity="1" stroke-width="1" stroke-linecap="butt" stroke-linejoin="bevel" transform="matrix(1,0,0,1,60.9773,163)" font-family="Sans Serif" font-size="9pt" font-weight="400" font-style="normal"  > <polyline fill="none" vector-effect="non-scaling-stroke" points="0,13.5 3.46939,13.5 " /> </g>          <g fill="none" stroke="#000000" stroke-opacity="1" stroke-width="1" stroke-linecap="square" stroke-linejoin="bevel" transform="matrix(1,0,0,1,64.4467,169)" font-family="Arial" font-size="10pt" font-weight="400" font-style="normal"  > <text fill="#000000" fill-opacity="1" stroke="none" xml:space="preserve" x="0" y="12" font-family="Arial" font-size="10pt" font-weight="400" font-style="normal"   >sample_65</text> </g>                    <g fill="none" stroke="#000000" stroke-opacity="1" stroke-width="1" stroke-linecap="butt" stroke-linejoin="bevel" transform="matrix(1,0,0,1,18.4363,190)" font-family="Sans Serif" font-size="9pt" font-weight="400" font-style="normal"  > <polyline fill="none" vector-effect="non-scaling-stroke" points="0,13.5 271.543,13.5 " /> </g>          <g fill="none" stroke="#000000" stroke-opacity="1" stroke-width="1" stroke-linecap="square" stroke-linejoin="bevel" transform="matrix(1,0,0,1,289.979,196)" font-family="Arial" font-size="10pt" font-weight="400" font-style="normal"  > <text fill="#000000" fill-opacity="1" stroke="none" xml:space="preserve" x="0" y="12" font-family="Arial" font-size="10pt" font-weight="400" font-style="normal"   >sample_50</text> </g>                                                                      <g fill="none" stroke="#000000" stroke-opacity="1" stroke-width="1" stroke-linecap="square" stroke-linejoin="bevel" transform="matrix(1,0,0,1,1,218)" font-family="Sans Serif" font-size="9pt" font-weight="400" font-style="normal"  > <polyline fill="none" vector-effect="none" points="0,5 50,5 " /> </g>      <g fill="none" stroke="#000000" stroke-opacity="1" stroke-width="1" stroke-linecap="square" stroke-linejoin="bevel" transform="matrix(1,0,0,1,1,218)" font-family="Sans Serif" font-size="9pt" font-weight="400" font-style="normal"  > <polyline fill="none" vector-effect="none" points="0,0 0,10 " /> </g>      <g fill="none" stroke="#000000" stroke-opacity="1" stroke-width="1" stroke-linecap="square" stroke-linejoin="bevel" transform="matrix(1,0,0,1,1,218)" font-family="Sans Serif" font-size="9pt" font-weight="400" font-style="normal"  > <polyline fill="none" vector-effect="none" points="50,0 50,10 " /> </g>      <g fill="none" stroke="#000000" stroke-opacity="1" stroke-width="1" stroke-linecap="square" stroke-linejoin="bevel" transform="matrix(1,0,0,1,1,228)" font-family="Sans Serif" font-size="9pt" font-weight="400" font-style="normal"  > <text fill="#000000" fill-opacity="1" stroke="none" xml:space="preserve" x="0" y="12" font-family="Sans Serif" font-size="9pt" font-weight="400" font-style="normal"   >0.416667</text> </g>     </g> </svg> 